{
  "accessors": [
    {
      "bufferView": 2,
      "componentType": 5126,
      "count": 65532,
      "max": [0.10829584300518036, -0.09692749381065369, 0.46059340238571167],
      "min": [-0.20271050930023193, -0.4176545739173889, 0.38530468940734863],
      "type": "VEC3"
    },
    {
      "bufferView": 2,
      "byteOffset": 786384,
      "componentType": 5126,
      "count": 65532,
      "max": [0.999983012676239, 0.9999639987945557, 1.0],
      "min": [-0.9967055320739746, -0.9999834895133972, -0.9999998211860657],
      "type": "VEC3"
    },
    {
      "bufferView": 1,
      "componentType": 5126,
      "count": 65532,
      "max": [0.9996150135993958, 0.9519041776657104],
      "min": [0.000244140625, 0.00024666322860866785],
      "type": "VEC2"
    },
    {
      "bufferView": 1,
      "byteOffset": 524256,
      "componentType": 5126,
      "count": 65532,
      "max": [0.9996150135993958, 0.9519041776657104],
      "min": [0.000244140625, 0.00024666322860866785],
      "type": "VEC2"
    },
    {
      "bufferView": 0,
      "componentType": 5125,
      "count": 290856,
      "type": "SCALAR"
    },
    {
      "bufferView": 2,
      "byteOffset": 1572768,
      "componentType": 5126,
      "count": 65532,
      "max": [0.1183251142501831, -0.11027374118566513, 0.46006646752357483],
      "min": [-0.06643763929605484, -0.41730794310569763, 0.37246888875961304],
      "type": "VEC3"
    },
    {
      "bufferView": 2,
      "byteOffset": 2359152,
      "componentType": 5126,
      "count": 65532,
      "max": [0.99993896484375, 0.9999970197677612, 1.0],
      "min": [-0.9999256730079651, -0.9999370574951172, -0.9999991059303284],
      "type": "VEC3"
    },
    {
      "bufferView": 1,
      "byteOffset": 1048512,
      "componentType": 5126,
      "count": 65532,
      "max": [0.9996793866157532, 0.9948729276657104],
      "min": [0.000244140625, 0.00028916134033352137],
      "type": "VEC2"
    },
    {
      "bufferView": 1,
      "byteOffset": 1572768,
      "componentType": 5126,
      "count": 65532,
      "max": [0.9996793866157532, 0.9948729276657104],
      "min": [0.000244140625, 0.00028916134033352137],
      "type": "VEC2"
    },
    {
      "bufferView": 0,
      "byteOffset": 1163424,
      "componentType": 5125,
      "count": 262203,
      "type": "SCALAR"
    },
    {
      "bufferView": 2,
      "byteOffset": 3145536,
      "componentType": 5126,
      "count": 65532,
      "max": [0.1151689887046814, -0.10759808868169785, 0.46006643772125244],
      "min": [-0.056954190135002136, -0.3063310384750366, 0.40104392170906067],
      "type": "VEC3"
    },
    {
      "bufferView": 2,
      "byteOffset": 3931920,
      "componentType": 5126,
      "count": 65532,
      "max": [0.9999919533729553, 0.9999460577964783, 0.998745858669281],
      "min": [-0.9999767541885376, -0.9999982714653015, -0.9999996423721313],
      "type": "VEC3"
    },
    {
      "bufferView": 1,
      "byteOffset": 2097024,
      "componentType": 5126,
      "count": 65532,
      "max": [0.9996761679649353, 0.9863192439079285],
      "min": [0.000244140625, 0.00024600757751613855],
      "type": "VEC2"
    },
    {
      "bufferView": 1,
      "byteOffset": 2621280,
      "componentType": 5126,
      "count": 65532,
      "max": [0.9996761679649353, 0.9863192439079285],
      "min": [0.000244140625, 0.00024600757751613855],
      "type": "VEC2"
    },
    {
      "bufferView": 0,
      "byteOffset": 2212236,
      "componentType": 5125,
      "count": 273633,
      "type": "SCALAR"
    },
    {
      "bufferView": 2,
      "byteOffset": 4718304,
      "componentType": 5126,
      "count": 65532,
      "max": [0.11881925165653229, -0.10759808868169785, 0.46006643772125244],
      "min": [-0.18407028913497925, -0.4176545739173889, 0.38487541675567627],
      "type": "VEC3"
    },
    {
      "bufferView": 2,
      "byteOffset": 5504688,
      "componentType": 5126,
      "count": 65532,
      "max": [0.9999696016311646, 0.99998939037323, 0.974118709564209],
      "min": [-0.99994295835495, -0.9998860359191895, -0.9999919533729553],
      "type": "VEC3"
    },
    {
      "bufferView": 1,
      "byteOffset": 3145536,
      "componentType": 5126,
      "count": 65532,
      "max": [0.9996688961982727, 0.9567869901657104],
      "min": [0.000244140625, 0.00028033985290676355],
      "type": "VEC2"
    },
    {
      "bufferView": 1,
      "byteOffset": 3669792,
      "componentType": 5126,
      "count": 65532,
      "max": [0.9996688961982727, 0.9567869901657104],
      "min": [0.000244140625, 0.00028033985290676355],
      "type": "VEC2"
    },
    {
      "bufferView": 0,
      "byteOffset": 3306768,
      "componentType": 5125,
      "count": 238167,
      "type": "SCALAR"
    },
    {
      "bufferView": 2,
      "byteOffset": 6291072,
      "componentType": 5126,
      "count": 65532,
      "max": [-0.05746528133749962, -0.09827647358179092, 0.4558452069759369],
      "min": [-0.1988750845193863, -0.40388965606689453, 0.3975125253200531],
      "type": "VEC3"
    },
    {
      "bufferView": 2,
      "byteOffset": 7077456,
      "componentType": 5126,
      "count": 65532,
      "max": [0.9999966621398926, 0.9999956488609314, 0.9952489137649536],
      "min": [-0.9999889731407166, -0.9999770522117615, -0.9999900460243225],
      "type": "VEC3"
    },
    {
      "bufferView": 1,
      "byteOffset": 4194048,
      "componentType": 5126,
      "count": 65532,
      "max": [0.9996747374534607, 0.9235838651657104],
      "min": [0.000244140625, 0.0002757502952590585],
      "type": "VEC2"
    },
    {
      "bufferView": 1,
      "byteOffset": 4718304,
      "componentType": 5126,
      "count": 65532,
      "max": [0.9996747374534607, 0.9235838651657104],
      "min": [0.000244140625, 0.0002757502952590585],
      "type": "VEC2"
    },
    {
      "bufferView": 0,
      "byteOffset": 4259436,
      "componentType": 5125,
      "count": 278886,
      "type": "SCALAR"
    },
    {
      "bufferView": 2,
      "byteOffset": 7863840,
      "componentType": 5126,
      "count": 65532,
      "max": [-0.04836150258779526, -0.09692749381065369, 0.46006643772125244],
      "min": [-0.2033718079328537, -0.3964146375656128, 0.38433972001075745],
      "type": "VEC3"
    },
    {
      "bufferView": 2,
      "byteOffset": 8650224,
      "componentType": 5126,
      "count": 65532,
      "max": [0.9999907612800598, 0.9999512434005737, 0.9940580725669861],
      "min": [-0.999843180179596, -0.9999770522117615, -0.9999919533729553],
      "type": "VEC3"
    },
    {
      "bufferView": 1,
      "byteOffset": 5242560,
      "componentType": 5126,
      "count": 65532,
      "max": [0.9996869564056396, 0.9938963651657104],
      "min": [0.000244140625, 0.00035532249603420496],
      "type": "VEC2"
    },
    {
      "bufferView": 1,
      "byteOffset": 5766816,
      "componentType": 5126,
      "count": 65532,
      "max": [0.9996869564056396, 0.9938963651657104],
      "min": [0.000244140625, 0.00035532249603420496],
      "type": "VEC2"
    },
    {
      "bufferView": 0,
      "byteOffset": 5374980,
      "componentType": 5125,
      "count": 255612,
      "type": "SCALAR"
    },
    {
      "bufferView": 2,
      "byteOffset": 9436608,
      "componentType": 5126,
      "count": 65532,
      "max": [-0.02520887739956379, -0.09577218443155289, 0.46006643772125244],
      "min": [-0.2033718079328537, -0.4055413603782654, 0.3975437581539154],
      "type": "VEC3"
    },
    {
      "bufferView": 2,
      "byteOffset": 10222992,
      "componentType": 5126,
      "count": 65532,
      "max": [0.9999966621398926, 0.9999922513961792, 0.999039351940155],
      "min": [-0.9995153546333313, -0.9999913573265076, -0.9999926686286926],
      "type": "VEC3"
    },
    {
      "bufferView": 1,
      "byteOffset": 6291072,
      "componentType": 5126,
      "count": 65532,
      "max": [0.9997425079345703, 0.9968260526657104],
      "min": [0.000244140625, 0.00024588836822658777],
      "type": "VEC2"
    },
    {
      "bufferView": 1,
      "byteOffset": 6815328,
      "componentType": 5126,
      "count": 65532,
      "max": [0.9997425079345703, 0.9968260526657104],
      "min": [0.000244140625, 0.00024588836822658777],
      "type": "VEC2"
    },
    {
      "bufferView": 0,
      "byteOffset": 6397428,
      "componentType": 5125,
      "count": 236637,
      "type": "SCALAR"
    },
    {
      "bufferView": 2,
      "byteOffset": 11009376,
      "componentType": 5126,
      "count": 65532,
      "max": [0.12171114981174469, -0.10092601180076599, 0.46059340238571167],
      "min": [-0.19052062928676605, -0.38822707533836365, 0.3989505171775818],
      "type": "VEC3"
    },
    {
      "bufferView": 2,
      "byteOffset": 11795760,
      "componentType": 5126,
      "count": 65532,
      "max": [0.9998282790184021, 0.9999897480010986, 1.0],
      "min": [-0.9999739527702332, -0.9999542236328125, -0.9999879002571106],
      "type": "VEC3"
    },
    {
      "bufferView": 1,
      "byteOffset": 7339584,
      "componentType": 5126,
      "count": 65532,
      "max": [0.999687135219574, 0.9685057401657104],
      "min": [0.000244140625, 0.00026263727340847254],
      "type": "VEC2"
    },
    {
      "bufferView": 1,
      "byteOffset": 7863840,
      "componentType": 5126,
      "count": 65532,
      "max": [0.999687135219574, 0.9685057401657104],
      "min": [0.000244140625, 0.00026263727340847254],
      "type": "VEC2"
    },
    {
      "bufferView": 0,
      "byteOffset": 7343976,
      "componentType": 5125,
      "count": 198753,
      "type": "SCALAR"
    },
    {
      "bufferView": 2,
      "byteOffset": 12582144,
      "componentType": 5126,
      "count": 65533,
      "max": [0.12001627683639526, -0.10701434314250946, 0.4600664973258972],
      "min": [-0.06552168726921082, -0.4133090674877167, 0.38504162430763245],
      "type": "VEC3"
    },
    {
      "bufferView": 2,
      "byteOffset": 13368540,
      "componentType": 5126,
      "count": 65533,
      "max": [0.9997596144676208, 0.9999739527702332, 1.0],
      "min": [-0.9999768137931824, -0.9999476075172424, -0.999993622303009],
      "type": "VEC3"
    },
    {
      "bufferView": 1,
      "byteOffset": 8388096,
      "componentType": 5126,
      "count": 65533,
      "max": [0.9997105598449707, 0.9784122109413147],
      "min": [0.000244140625, 0.0002455903450027108],
      "type": "VEC2"
    },
    {
      "bufferView": 1,
      "byteOffset": 8912360,
      "componentType": 5126,
      "count": 65533,
      "max": [0.9997105598449707, 0.9784122109413147],
      "min": [0.000244140625, 0.0002455903450027108],
      "type": "VEC2"
    },
    {
      "bufferView": 0,
      "byteOffset": 8138988,
      "componentType": 5125,
      "count": 200979,
      "type": "SCALAR"
    },
    {
      "bufferView": 2,
      "byteOffset": 14154936,
      "componentType": 5126,
      "count": 1391,
      "max": [0.07923701405525208, -0.16946706175804138, 0.45515045523643494],
      "min": [0.036918725818395615, -0.299189031124115, 0.39569392800331116],
      "type": "VEC3"
    },
    {
      "bufferView": 2,
      "byteOffset": 14171628,
      "componentType": 5126,
      "count": 1391,
      "max": [0.9888995885848999, 0.9993155002593994, 0.7722702026367188],
      "min": [-0.9866498708724976, -0.9969130754470825, -0.9995996952056885],
      "type": "VEC3"
    },
    {
      "bufferView": 1,
      "byteOffset": 9436624,
      "componentType": 5126,
      "count": 1391,
      "max": [0.9993042349815369, 0.7019041776657104],
      "min": [0.017822265625, 0.0002875520149245858],
      "type": "VEC2"
    },
    {
      "bufferView": 1,
      "byteOffset": 9447752,
      "componentType": 5126,
      "count": 1391,
      "max": [0.9993042349815369, 0.7019041776657104],
      "min": [0.017822265625, 0.0002875520149245858],
      "type": "VEC2"
    },
    {
      "bufferView": 0,
      "byteOffset": 8942904,
      "componentType": 5125,
      "count": 3102,
      "type": "SCALAR"
    }
  ],
  "asset": {
    "extras": {
      "author": "alban (https://sketchfab.com/alban)",
      "license": "CC-BY-4.0 (http://creativecommons.org/licenses/by/4.0/)",
      "source": "https://sketchfab.com/3d-models/novi-sad-pastries-2fd29496e03e4acc955e2ca35addab23",
      "title": "Novi Sad Pastries"
    },
    "generator": "Sketchfab-14.63.0",
    "version": "2.0"
  },
  "bufferViews": [
    {
      "buffer": 0,
      "byteLength": 8955312,
      "name": "floatBufferViews",
      "target": 34963
    },
    {
      "buffer": 0,
      "byteLength": 9458880,
      "byteOffset": 8955312,
      "byteStride": 8,
      "name": "floatBufferViews",
      "target": 34962
    },
    {
      "buffer": 0,
      "byteLength": 14188320,
      "byteOffset": 18414192,
      "byteStride": 12,
      "name": "floatBufferViews",
      "target": 34962
    }
  ],
  "buffers": [
    {
      "byteLength": 32602512,
      "uri": "scene.bin"
    }
  ],
  "extensionsUsed": ["KHR_materials_unlit"],
  "images": [
    {
      "uri": "textures/tex_u1_v1_baseColor.jpeg"
    }
  ],
  "materials": [
    {
      "doubleSided": true,
      "extensions": {
        "KHR_materials_unlit": {}
      },
      "name": "tex_u1_v1",
      "pbrMetallicRoughness": {
        "baseColorTexture": {
          "index": 0
        },
        "metallicFactor": 0.0
      }
    }
  ],
  "meshes": [
    {
      "name": "model_tex_u1_v1_0",
      "primitives": [
        {
          "attributes": {
            "NORMAL": 1,
            "POSITION": 0,
            "TEXCOORD_0": 2,
            "TEXCOORD_1": 3
          },
          "indices": 4,
          "material": 0,
          "mode": 4
        }
      ]
    },
    {
      "name": "model_tex_u1_v1_0",
      "primitives": [
        {
          "attributes": {
            "NORMAL": 6,
            "POSITION": 5,
            "TEXCOORD_0": 7,
            "TEXCOORD_1": 8
          },
          "indices": 9,
          "material": 0,
          "mode": 4
        }
      ]
    },
    {
      "name": "model_tex_u1_v1_0",
      "primitives": [
        {
          "attributes": {
            "NORMAL": 11,
            "POSITION": 10,
            "TEXCOORD_0": 12,
            "TEXCOORD_1": 13
          },
          "indices": 14,
          "material": 0,
          "mode": 4
        }
      ]
    },
    {
      "name": "model_tex_u1_v1_0",
      "primitives": [
        {
          "attributes": {
            "NORMAL": 16,
            "POSITION": 15,
            "TEXCOORD_0": 17,
            "TEXCOORD_1": 18
          },
          "indices": 19,
          "material": 0,
          "mode": 4
        }
      ]
    },
    {
      "name": "model_tex_u1_v1_0",
      "primitives": [
        {
          "attributes": {
            "NORMAL": 21,
            "POSITION": 20,
            "TEXCOORD_0": 22,
            "TEXCOORD_1": 23
          },
          "indices": 24,
          "material": 0,
          "mode": 4
        }
      ]
    },
    {
      "name": "model_tex_u1_v1_0",
      "primitives": [
        {
          "attributes": {
            "NORMAL": 26,
            "POSITION": 25,
            "TEXCOORD_0": 27,
            "TEXCOORD_1": 28
          },
          "indices": 29,
          "material": 0,
          "mode": 4
        }
      ]
    },
    {
      "name": "model_tex_u1_v1_0",
      "primitives": [
        {
          "attributes": {
            "NORMAL": 31,
            "POSITION": 30,
            "TEXCOORD_0": 32,
            "TEXCOORD_1": 33
          },
          "indices": 34,
          "material": 0,
          "mode": 4
        }
      ]
    },
    {
      "name": "model_tex_u1_v1_0",
      "primitives": [
        {
          "attributes": {
            "NORMAL": 36,
            "POSITION": 35,
            "TEXCOORD_0": 37,
            "TEXCOORD_1": 38
          },
          "indices": 39,
          "material": 0,
          "mode": 4
        }
      ]
    },
    {
      "name": "model_tex_u1_v1_0",
      "primitives": [
        {
          "attributes": {
            "NORMAL": 41,
            "POSITION": 40,
            "TEXCOORD_0": 42,
            "TEXCOORD_1": 43
          },
          "indices": 44,
          "material": 0,
          "mode": 4
        }
      ]
    },
    {
      "name": "model_tex_u1_v1_0",
      "primitives": [
        {
          "attributes": {
            "NORMAL": 46,
            "POSITION": 45,
            "TEXCOORD_0": 47,
            "TEXCOORD_1": 48
          },
          "indices": 49,
          "material": 0,
          "mode": 4
        }
      ]
    }
  ],
  "nodes": [
    {
      "children": [1],
      "matrix": [
        1.0, 0.0, 0.0, 0.0, 0.0, 2.220446049250313e-16, -1.0, 0.0, 0.0, 1.0,
        2.220446049250313e-16, 0.0, 0.0, 0.0, 0.0, 1.0
      ],
      "name": "Sketchfab_model"
    },
    {
      "children": [2],
      "matrix": [
        1.0, 0.0, 0.0, 0.0, 0.0, -1.0, 0.0, 0.0, 0.0, 0.0, -1.0, 0.0, 0.0, 0.0,
        0.0, 1.0
      ],
      "name": "model.fbx"
    },
    {
      "children": [3],
      "name": "RootNode"
    },
    {
      "children": [4, 5, 6, 7, 8, 9, 10, 11, 12, 13],
      "name": "model"
    },
    {
      "mesh": 0,
      "name": "model_tex_u1_v1_0"
    },
    {
      "mesh": 1,
      "name": "model_tex_u1_v1_0"
    },
    {
      "mesh": 2,
      "name": "model_tex_u1_v1_0"
    },
    {
      "mesh": 3,
      "name": "model_tex_u1_v1_0"
    },
    {
      "mesh": 4,
      "name": "model_tex_u1_v1_0"
    },
    {
      "mesh": 5,
      "name": "model_tex_u1_v1_0"
    },
    {
      "mesh": 6,
      "name": "model_tex_u1_v1_0"
    },
    {
      "mesh": 7,
      "name": "model_tex_u1_v1_0"
    },
    {
      "mesh": 8,
      "name": "model_tex_u1_v1_0"
    },
    {
      "mesh": 9,
      "name": "model_tex_u1_v1_0"
    }
  ],
  "samplers": [
    {
      "magFilter": 9729,
      "minFilter": 9987,
      "wrapS": 10497,
      "wrapT": 10497
    }
  ],
  "scene": 0,
  "scenes": [
    {
      "name": "Sketchfab_Scene",
      "nodes": [0]
    }
  ],
  "textures": [
    {
      "sampler": 0,
      "source": 0
    }
  ]
}
